<svg width="207" height="75" viewBox="0 0 207 75" fill="none" xmlns="http://www.w3.org/2000/svg">
<path d="M22.5 60C18.375 60 15.0375 63.375 15.0375 67.5C15.0375 71.625 18.375 75 22.5 75C26.625 75 30 71.625 30 67.5C30 63.375 26.625 60 22.5 60ZM3.75 0C1.67893 0 0 1.67893 0 3.75V3.75C0 5.82107 1.67893 7.5 3.75 7.5H7.27009C7.4105 7.5 7.53835 7.58086 7.59853 7.70773L21 35.9625L15.9375 45.15C15.3375 46.2 15 47.4375 15 48.75C15 52.875 18.375 56.25 22.5 56.25H63.75C65.8211 56.25 67.5 54.5711 67.5 52.5V52.5C67.5 50.4289 65.8211 48.75 63.75 48.75H24.075C23.55 48.75 23.1375 48.3375 23.1375 47.8125L23.25 47.3625L25.1987 43.8332C26.0787 42.2395 27.7553 41.25 29.5758 41.25H52.5798C56.4332 41.25 59.9438 39.0359 61.604 35.5585L71.5844 14.6542C73.1687 11.3358 70.7494 7.5 67.0722 7.5H16.7083C16.1463 7.5 15.6349 7.17529 15.3958 6.66667L12.5739 0.662581C12.3838 0.258176 11.9772 0 11.5304 0H3.75ZM60 60C55.875 60 52.5375 63.375 52.5375 67.5C52.5375 71.625 55.875 75 60 75C64.125 75 67.5 71.625 67.5 67.5C67.5 63.375 64.125 60 60 60Z" fill="url(#paint0_linear)"/>
<path d="M100.472 37.512C98.2533 37.512 96.2267 36.9893 94.392 35.944C92.5573 34.8773 91.1067 33.4373 90.04 31.624C88.9947 29.7893 88.472 27.7627 88.472 25.544C88.472 23.3253 88.9947 21.3093 90.04 19.496C91.1067 17.6613 92.5573 16.2213 94.392 15.176C96.2267 14.1093 98.2533 13.576 100.472 13.576C103.928 13.576 106.787 14.824 109.048 17.32L106.008 20.264C104.536 18.536 102.701 17.672 100.504 17.672C99.0747 17.672 97.7733 18.0027 96.6 18.664C95.4267 19.304 94.4987 20.2213 93.816 21.416C93.1547 22.6107 92.824 23.9867 92.824 25.544C92.824 27.1013 93.1547 28.4773 93.816 29.672C94.4987 30.8667 95.4267 31.7947 96.6 32.456C97.7733 33.096 99.0747 33.416 100.504 33.416C102.915 33.416 104.931 32.4133 106.552 30.408L109.624 33.32C108.493 34.6853 107.149 35.7307 105.592 36.456C104.056 37.16 102.349 37.512 100.472 37.512ZM118.467 37.512C116.505 37.512 115.011 36.904 113.987 35.688C112.963 34.472 112.451 32.776 112.451 30.6V20.68H116.643V30.088C116.643 31.1973 116.91 32.072 117.443 32.712C117.977 33.3307 118.681 33.64 119.555 33.64C120.75 33.64 121.699 33.2027 122.403 32.328C123.107 31.4533 123.459 30.344 123.459 29V20.68H127.651V37H123.715V34.952H123.459C122.969 35.7413 122.275 36.3707 121.379 36.84C120.505 37.288 119.534 37.512 118.467 37.512ZM137.787 37.512C135.803 37.512 134.193 37.1067 132.955 36.296C131.739 35.4853 130.886 34.4293 130.395 33.128L134.139 31.496C134.481 32.264 134.961 32.8507 135.579 33.256C136.219 33.64 136.955 33.832 137.787 33.832C138.555 33.832 139.195 33.7147 139.707 33.48C140.219 33.224 140.475 32.8187 140.475 32.264C140.475 31.7307 140.241 31.336 139.771 31.08C139.302 30.8027 138.598 30.5573 137.659 30.344L135.739 29.928C134.417 29.608 133.318 29.032 132.443 28.2C131.569 27.3467 131.131 26.2907 131.131 25.032C131.131 24.0933 131.409 23.2507 131.963 22.504C132.539 21.7573 133.307 21.1813 134.267 20.776C135.249 20.3707 136.326 20.168 137.499 20.168C140.87 20.168 143.121 21.352 144.251 23.72L140.667 25.288C140.027 24.136 139.003 23.56 137.595 23.56C136.87 23.56 136.294 23.6987 135.867 23.976C135.441 24.232 135.227 24.5627 135.227 24.968C135.227 25.736 135.953 26.312 137.403 26.696L139.803 27.272C141.425 27.6773 142.641 28.296 143.451 29.128C144.283 29.96 144.699 30.984 144.699 32.2C144.699 33.2453 144.39 34.1733 143.771 34.984C143.174 35.7733 142.342 36.392 141.275 36.84C140.23 37.288 139.067 37.512 137.787 37.512ZM154.683 37.256C153.873 37.256 153.126 37.1387 152.443 36.904C151.761 36.648 151.206 36.3067 150.779 35.88C149.777 34.92 149.275 33.5547 149.275 31.784V24.264H146.427V20.68H149.275V16.072H153.467V20.68H157.467V24.264H153.467V31.016C153.467 31.848 153.649 32.4453 154.011 32.808C154.31 33.1493 154.822 33.32 155.547 33.32C155.953 33.32 156.283 33.2667 156.539 33.16C156.817 33.0533 157.169 32.872 157.595 32.616V36.712C156.678 37.0747 155.707 37.256 154.683 37.256ZM168.2 37.512C166.514 37.512 165.01 37.1387 163.688 36.392C162.365 35.624 161.33 34.5893 160.584 33.288C159.858 31.9653 159.496 30.4827 159.496 28.84C159.496 27.2187 159.858 25.7467 160.584 24.424C161.33 23.1013 162.365 22.0667 163.688 21.32C165.01 20.552 166.514 20.168 168.2 20.168C169.864 20.168 171.357 20.552 172.68 21.32C174.002 22.0667 175.026 23.1013 175.752 24.424C176.498 25.7467 176.872 27.2187 176.872 28.84C176.872 30.4827 176.498 31.9653 175.752 33.288C175.026 34.5893 174.002 35.624 172.68 36.392C171.357 37.1387 169.864 37.512 168.2 37.512ZM168.2 33.64C169.01 33.64 169.757 33.448 170.44 33.064C171.122 32.68 171.666 32.1253 172.072 31.4C172.477 30.6747 172.68 29.8213 172.68 28.84C172.68 27.88 172.477 27.0373 172.072 26.312C171.666 25.5867 171.122 25.032 170.44 24.648C169.757 24.264 169.01 24.072 168.2 24.072C167.389 24.072 166.642 24.264 165.96 24.648C165.277 25.032 164.722 25.5867 164.296 26.312C163.89 27.0373 163.688 27.88 163.688 28.84C163.688 29.8 163.89 30.6533 164.296 31.4C164.722 32.1253 165.277 32.68 165.96 33.064C166.642 33.448 167.389 33.64 168.2 33.64ZM179.767 20.68H183.703V22.728H183.959C184.471 21.9387 185.153 21.32 186.007 20.872C186.881 20.4027 187.852 20.168 188.919 20.168C190.071 20.168 191.073 20.4453 191.927 21C192.78 21.5333 193.388 22.216 193.751 23.048C194.284 22.1947 195.009 21.5013 195.927 20.968C196.865 20.4347 197.964 20.168 199.223 20.168C201.079 20.168 202.487 20.744 203.447 21.896C204.428 23.0267 204.919 24.5627 204.919 26.504V37H200.759V27.272C200.759 26.248 200.513 25.4587 200.023 24.904C199.553 24.3493 198.892 24.072 198.039 24.072C196.951 24.072 196.076 24.5093 195.415 25.384C194.775 26.2373 194.455 27.368 194.455 28.776V37H190.263V27.272C190.263 26.248 190.007 25.4587 189.495 24.904C189.004 24.3493 188.3 24.072 187.383 24.072C186.359 24.072 185.527 24.5093 184.887 25.384C184.268 26.2373 183.959 27.368 183.959 28.776V37H179.767V20.68ZM89.56 44.088H93.496L100.792 62.872H100.92L108.216 44.088H112.152V67H109.464V52.44L109.592 48.088H109.464L101.976 67H99.736L92.248 48.088H92.12L92.248 52.44V67H89.56V44.088ZM121.482 67.512C120.287 67.512 119.221 67.2773 118.282 66.808C117.343 66.3387 116.618 65.6987 116.106 64.888C115.594 64.056 115.338 63.1173 115.338 62.072C115.338 60.344 115.989 59 117.29 58.04C118.591 57.0587 120.234 56.568 122.218 56.568C123.199 56.568 124.106 56.6747 124.938 56.888C125.791 57.1013 126.442 57.3467 126.89 57.624V56.632C126.89 55.416 126.463 54.4453 125.61 53.72C124.757 52.9733 123.679 52.6 122.378 52.6C121.461 52.6 120.618 52.8027 119.85 53.208C119.082 53.592 118.474 54.136 118.026 54.84L115.978 53.304C116.618 52.3227 117.493 51.5547 118.602 51C119.733 50.4453 120.981 50.168 122.346 50.168C124.565 50.168 126.303 50.7547 127.562 51.928C128.842 53.08 129.482 54.6587 129.482 56.664V67H126.89V64.664H126.762C126.293 65.4533 125.589 66.1253 124.65 66.68C123.711 67.2347 122.655 67.512 121.482 67.512ZM121.738 65.112C122.655 65.112 123.509 64.8773 124.298 64.408C125.087 63.9387 125.717 63.3093 126.186 62.52C126.655 61.7307 126.89 60.8667 126.89 59.928C126.378 59.5867 125.749 59.3093 125.002 59.096C124.255 58.8827 123.466 58.776 122.634 58.776C121.141 58.776 120.01 59.0853 119.242 59.704C118.495 60.3227 118.122 61.1227 118.122 62.104C118.122 63 118.463 63.7253 119.146 64.28C119.829 64.8347 120.693 65.112 121.738 65.112ZM133.266 50.68H135.858V53.304H135.986C136.306 52.408 136.925 51.672 137.842 51.096C138.759 50.4987 139.719 50.2 140.722 50.2C141.469 50.2 142.109 50.3067 142.642 50.52V53.464C141.959 53.1227 141.191 52.952 140.338 52.952C139.549 52.952 138.823 53.176 138.162 53.624C137.501 54.072 136.967 54.68 136.562 55.448C136.178 56.1947 135.986 57.0053 135.986 57.88V67H133.266V50.68ZM145.422 44.088H148.142V58.488L155.822 50.68H159.278V50.808L152.878 57.272L159.438 66.872V67H156.206L150.958 59.16L148.142 61.976V67H145.422V44.088ZM168.374 67.512C166.816 67.512 165.419 67.1387 164.182 66.392C162.944 65.6453 161.974 64.6213 161.27 63.32C160.587 61.9973 160.246 60.5147 160.246 58.872C160.246 57.2933 160.566 55.8427 161.206 54.52C161.867 53.1973 162.795 52.1413 163.99 51.352C165.184 50.5627 166.571 50.168 168.15 50.168C169.75 50.168 171.136 50.5307 172.31 51.256C173.483 51.96 174.379 52.9413 174.998 54.2C175.638 55.4587 175.958 56.8987 175.958 58.52C175.958 58.84 175.926 59.1173 175.862 59.352H162.966C163.03 60.5893 163.328 61.6347 163.862 62.488C164.395 63.3413 165.067 63.9813 165.878 64.408C166.71 64.8347 167.574 65.048 168.47 65.048C170.56 65.048 172.171 64.0667 173.302 62.104L175.606 63.224C174.902 64.5467 173.942 65.592 172.726 66.36C171.531 67.128 170.08 67.512 168.374 67.512ZM173.078 57.112C173.035 56.4293 172.843 55.7467 172.502 55.064C172.16 54.3813 171.616 53.8053 170.87 53.336C170.144 52.8667 169.227 52.632 168.118 52.632C166.838 52.632 165.75 53.048 164.854 53.88C163.979 54.6907 163.403 55.768 163.126 57.112H173.078ZM184.944 67.256C184.283 67.256 183.664 67.1493 183.088 66.936C182.534 66.7227 182.064 66.4347 181.68 66.072C181.254 65.6667 180.934 65.1973 180.72 64.664C180.507 64.1307 180.4 63.48 180.4 62.712V53.144H177.552V50.68H180.4V46.072H183.12V50.68H187.088V53.144H183.12V62.04C183.12 62.936 183.291 63.5973 183.632 64.024C184.038 64.4933 184.624 64.728 185.392 64.728C186.011 64.728 186.608 64.5467 187.184 64.184V66.84C186.864 66.9893 186.534 67.096 186.192 67.16C185.872 67.224 185.456 67.256 184.944 67.256Z" fill="white"/>
<defs>
<linearGradient id="paint0_linear" x1="0" y1="0" x2="75" y2="75" gradientUnits="userSpaceOnUse">
<stop stop-color="#7000FF"/>
<stop offset="1" stop-color="#00B2FF"/>
</linearGradient>
</defs>
</svg>
